HIERARCHY
ROOT Hips
{
	OFFSET 0.00000 0.00000 0.00000
	CHANNELS 6 Xposition Yposition Zposition Zrotation Yrotation Xrotation 
	JOINT LHipJoint
	{
		OFFSET 0 0 0
		CHANNELS 3 Zrotation Yrotation Xrotation
		JOINT LeftHip
		{
			OFFSET 1.74857 -1.85566 0.69197
			CHANNELS 3 Zrotation Yrotation Xrotation
			JOINT LeftKnee
			{
				OFFSET 2.40003 -6.59403 0.00000
				CHANNELS 3 Zrotation Yrotation Xrotation
				JOINT LeftAnkle
				{
					OFFSET 2.82169 -7.75254 0.00000
					CHANNELS 3 Zrotation Yrotation Xrotation
					JOINT LeftToe
					{
						OFFSET 0.16466 -0.45240 2.26890
						CHANNELS 3 Zrotation Yrotation Xrotation
						End Site
						{
							OFFSET 0.00000 -0.00000 1.16486
						}
					}
				}
			}
		}
	}
	JOINT RHipJoint
	{
		OFFSET 0 0 0
		CHANNELS 3 Zrotation Yrotation Xrotation
		JOINT RightHip
		{
			OFFSET -1.64169 -1.85566 0.69197
			CHANNELS 3 Zrotation Yrotation Xrotation
			JOINT RightKnee
			{
				OFFSET -2.41814 -6.64379 0.00000
				CHANNELS 3 Zrotation Yrotation Xrotation
				JOINT RightAnkle
				{
					OFFSET -2.80588 -7.70911 0.00000
					CHANNELS 3 Zrotation Yrotation Xrotation
					JOINT RightToe
					{
						OFFSET -0.19098 -0.52472 2.25401
						CHANNELS 3 Zrotation Yrotation Xrotation
						End Site
						{
							OFFSET -0.00000 -0.00000 1.16333
						}
					}
				}
			}
		}
	}
	JOINT lowerback
	{
		OFFSET 0 0 0
		CHANNELS 3 Zrotation Yrotation Xrotation
		JOINT Chest
		{
			OFFSET -0.02828 2.14690 -0.11061
			CHANNELS 3 Zrotation Yrotation Xrotation
			JOINT Chest2
			{
				OFFSET -0.00167 2.15299 0.00759
				CHANNELS 3 Zrotation Yrotation Xrotation
				JOINT lowerneck
				{
					OFFSET 0 0 0
					CHANNELS 3 Zrotation Yrotation Xrotation
					JOINT Neck
					{
						OFFSET -0.09296 1.90118 0.07197
						CHANNELS 3 Zrotation Yrotation Xrotation
						JOINT Head
						{
							OFFSET 0.08490 1.89526 -0.24604
							CHANNELS 3 Zrotation Yrotation Xrotation
							End Site
							{
								OFFSET 0.03186 1.92109 -0.09483
							}
						}
					}
				}
				JOINT LeftCollar
				{
					OFFSET 0 0 0
					CHANNELS 3 Zrotation Yrotation Xrotation
					JOINT LeftShoulder
					{
						OFFSET 3.21569 1.44644 -0.03720
CHANNELS 3 Zrotation Xrotation Yrotation
						JOINT LeftElbow
						{
OFFSET 0 -5.476510 -0.000000
CHANNELS 3 Zrotation Xrotation Yrotation
							JOINT LeftWrist
							{
OFFSET 0 -3.090580 -0.000000
CHANNELS 3 Zrotation Xrotation Yrotation
								JOINT lhand
								{
									OFFSET 0 0 0
CHANNELS 3 Zrotation Xrotation Yrotation
									JOINT LFingers
									{
OFFSET 0 -0.771610 -0.000000
CHANNELS 3 Zrotation Xrotation Yrotation
										End Site
										{
OFFSET 0 -0.622090 -0.000000
										}
									}
								}
								JOINT LThumb
								{
OFFSET 0 0.000000 0.000000
CHANNELS 3 Zrotation Xrotation Yrotation
									End Site
									{
OFFSET 0 -0.631590 0.631590
									}
								}
							}
						}
					}
				}
				JOINT RightCollar
				{
					OFFSET 0 0 0
					CHANNELS 3 Zrotation Yrotation Xrotation
					JOINT RightShoulder
					{
						OFFSET -3.38693 1.28904 -0.07093
CHANNELS 3 Zrotation Xrotation Yrotation
						JOINT RightElbow
						{
OFFSET 0 -5.141820 -0.000000
CHANNELS 3 Zrotation Xrotation Yrotation
							JOINT RightWrist
							{
OFFSET 0 -3.355650 -0.000000
CHANNELS 3 Zrotation Xrotation Yrotation
								JOINT rhand
								{
									OFFSET 0 0 0
CHANNELS 3 Zrotation Xrotation Yrotation
									JOINT RFingers
									{
OFFSET 0 -0.801040 -0.000000
CHANNELS 3 Zrotation Xrotation Yrotation
										End Site
										{
OFFSET 0 -0.645820 -0.000000
										}
									}
								}
								JOINT RThumb
								{
OFFSET 0 0.000000 0.000000
CHANNELS 3 Zrotation Xrotation Yrotation
									End Site
									{
OFFSET 0 -0.655680 0.655680
									}
								}
							}
						}
					}
				}
			}
		}
	}
}
MOTION
Frames: 7
Frame Time: 0.008333333333333333
-0.473100 17.422400 -1.883700 -5.200300 -19.603000 5.916600 0.000000 0.000000 0.000000 -11.074700 6.669100 -28.657500 5.963400 14.392800 44.834600 1.975200 4.398200 -28.416100 0.330400 -3.694400 -10.218500 0.000000 0.000000 0.000000 24.524200 15.380400 -22.742000 -3.866500 -11.980600 35.663400 -0.742300 2.042600 -15.711100 -0.562700 4.804500 -13.351800 -8.184100 -5.536200 15.133300 -5.167000 -8.521100 7.363700 0.356700 -4.389800 -0.186200 -2.398400 11.581000 -1.917800 4.413000 15.138900 11.662800 2.337100 7.500800 3.579800 -0.000000 -0.000000 0.000000 -22.074300 -58.496300 -115.132300 57.020900 -55.462400 31.874300 30.282300 -31.306600 -26.244700 0.000000 0.000000 0.000000 -7.125000 0.000000 0.000000 0.439900 59.702700 -0.157900 -0.000000 -0.000000 0.000000 -73.033900 -35.631400 26.833700 -88.482300 -59.991300 -58.685600 -26.522900 -73.278200 -23.813900 0.000000 0.000000 0.000000 7.125000 0.000000 -0.000000 1.678000 3.734500 1.565800
-0.465161 17.434661 -1.842112 -4.512099 -19.639320 6.030163 0.000000 0.000000 0.000000 -11.964452 6.098260 -28.372060 5.823533 14.255148 44.269313 1.964621 4.889008 -28.592021 0.303103 -3.539776 -9.785370 0.000000 0.000000 0.000000 23.646342 15.238174 -23.225991 -3.933404 -12.071242 35.984501 -0.751553 2.478502 -15.724825 -0.402268 4.071969 -11.279270 -9.152532 -5.934464 14.786342 -5.690182 -9.156640 7.135375 0.376408 -4.712184 -0.132466 -2.425532 12.095285 -1.935632 5.530585 15.738357 11.461027 2.685794 7.847747 3.390741 0.000000 0.000000 0.000000 -24.738130 -58.488712 -118.140455 58.386931 -55.864374 33.002425 30.938004 -32.206582 -26.998243 0.000000 0.000000 0.000000 -7.125000 0.000000 0.000000 0.974239 60.687390 -0.372553 0.000000 0.000000 0.000000 -75.250220 -34.097188 25.081486 -89.955986 -59.999958 -59.961865 -26.520648 -74.320599 -23.135558 0.000000 0.000000 0.000000 7.125000 0.000000 0.000000 1.590349 4.462841 1.462317
-0.430660 17.388080 -1.847433 -4.199737 -15.601353 5.509520 0.000000 0.000000 0.000000 -12.014446 4.434984 -28.636083 5.926818 14.357003 44.687232 1.934046 2.517077 -27.280072 0.260450 -3.281642 -9.063987 0.000000 0.000000 0.000000 23.098891 13.916490 -23.902442 -4.240625 -12.473875 37.429689 -0.850082 0.170400 -17.372342 -0.473735 4.407450 -12.226989 -8.029467 -4.978854 14.405868 -4.825110 -7.634635 7.759546 0.411089 -3.980886 0.595846 -2.664207 10.064767 -2.221187 5.582611 13.052334 11.057081 2.702053 6.531574 3.401210 0.000000 0.000000 0.000000 -17.434763 -56.321087 -112.383227 60.437543 -56.425395 34.705419 29.910671 -32.613940 -26.939683 0.000000 0.000000 0.000000 -7.125000 0.000000 0.000000 -0.236695 60.362417 0.088915 0.000000 0.000000 0.000000 -69.590179 -35.242537 29.743940 -88.601820 -59.992585 -58.789133 -25.967745 -74.174160 -22.643116 0.000000 0.000000 0.000000 7.125000 0.000000 0.000000 1.871074 5.100346 1.698191
-0.340312 17.391554 -1.879070 -2.002922 -9.343112 5.058763 0.000000 0.000000 0.000000 -14.561872 0.998276 -28.615571 5.600944 14.030226 43.358523 1.643224 1.631089 -24.862042 0.441061 -4.261025 -11.812185 0.000000 0.000000 0.000000 20.138149 11.317567 -25.546490 -4.650382 -12.978917 39.289526 -0.959809 -2.482903 -19.559846 -0.419298 4.156119 -11.516378 -6.042016 -2.367209 13.981608 -2.976791 -3.859096 8.234590 0.758308 -2.091100 1.074813 -3.570045 5.687213 -2.175222 4.993053 7.341991 9.692351 2.493332 3.677658 3.176647 0.000000 0.000000 0.000000 -3.906951 -55.457307 -106.162351 61.640097 -56.731130 35.709198 29.474701 -32.606382 -27.965734 0.000000 0.000000 0.000000 -7.125000 0.000000 0.000000 -1.148984 61.354138 0.457734 0.000000 0.000000 0.000000 -57.113712 -36.358959 39.335051 -85.715701 -59.930426 -56.290543 -28.051051 -74.545301 -22.213037 0.000000 0.000000 0.000000 7.125000 0.000000 0.000000 0.519166 5.149843 0.470286
-0.269675 17.428434 -1.884622 0.151685 -2.876125 4.897060 0.000000 0.000000 0.000000 -17.239012 -2.688273 -27.530045 5.058490 13.449347 41.074720 1.352102 0.489761 -22.170522 0.418138 -4.150362 -11.500175 0.000000 0.000000 0.000000 17.365530 8.556278 -26.313337 -4.833988 -13.194372 40.100607 -0.949743 -5.498188 -21.187460 -0.446024 4.284823 -11.879403 -2.211493 0.933092 14.499525 -0.623315 0.934965 7.968271 0.465332 0.406701 0.255894 -4.732767 -0.225809 -1.294184 3.245218 -0.360844 8.736573 1.878927 -0.223163 3.059526 0.000000 0.000000 0.000000 16.078480 -52.067959 -94.676869 65.814480 -57.669244 39.218689 29.225476 -32.070667 -28.745851 0.000000 0.000000 0.000000 -7.125000 0.000000 0.000000 -1.781148 62.121885 0.741595 0.000000 0.000000 0.000000 -40.386989 -38.562074 53.443303 -79.005173 -59.537957 -50.492989 -27.959427 -72.321288 -21.173427 0.000000 0.000000 0.000000 7.125000 0.000000 0.000000 0.439794 6.301686 0.388843
-0.227239 17.488681 -1.822470 2.195637 2.551715 5.167035 0.000000 0.000000 0.000000 -19.855679 -5.447078 -26.021740 4.443654 12.728452 38.360435 1.097441 -0.356117 -19.693941 0.388933 -4.004263 -11.088596 0.000000 0.000000 0.000000 14.842753 6.544253 -26.201093 -4.918938 -13.291918 40.471209 -1.005869 -7.494645 -23.067328 -0.332077 3.703420 -10.243823 1.981363 3.939917 14.466420 0.657398 5.424903 8.089219 -1.153367 2.768440 0.577537 -4.790852 -6.370978 -0.411395 2.999366 -8.533782 6.348555 1.564690 -4.274439 2.456144 0.000000 0.000000 0.000000 38.601290 -44.924640 -79.097614 76.935279 -59.344590 48.710576 27.187006 -31.997344 -29.577286 0.000000 0.000000 0.000000 -7.125000 0.000000 0.000000 -4.658490 62.460507 1.979058 0.000000 0.000000 0.000000 -20.010125 -42.744579 71.142454 -70.271045 -58.476703 -43.001596 -29.792421 -69.524716 -21.843547 0.000000 0.000000 0.000000 7.125000 0.000000 0.000000 -0.616238 5.188662 -0.557908
-0.196051 17.541877 -1.716427 3.408392 5.802826 6.619975 0.000000 0.000000 0.000000 -21.282010 -7.077241 -25.938709 4.044672 12.219563 36.513345 0.957469 -1.093716 -18.159217 0.396142 -4.041299 -11.192764 0.000000 0.000000 0.000000 13.378804 5.894484 -26.810523 -4.928233 -13.302552 40.511908 -0.968911 -9.263911 -24.127261 -0.317698 3.622902 -10.018134 3.936851 6.821077 13.962949 1.783793 9.455732 7.607335 -1.519898 4.816154 0.617515 -4.143544 -11.118476 1.799760 3.198953 -14.880028 -0.309465 1.643571 -7.450045 0.174044 0.000000 0.000000 0.000000 50.398888 -36.186851 -70.866849 88.609327 -59.992338 58.795681 26.837096 -32.662309 -28.871858 0.000000 0.000000 0.000000 -7.125000 0.000000 0.000000 -4.714431 61.632665 1.910776 0.000000 0.000000 0.000000 -5.528371 -44.763003 84.307942 -65.047951 -57.511369 -38.571513 -28.480633 -66.953867 -22.240152 0.000000 0.000000 0.000000 7.125000 0.000000 0.000000 0.255819 5.031381 0.232073
